{
	"asset":{
		"generator":"Khronos glTF Blender I/O v3.6.28",
		"version":"2.0"
	},
	"extensionsUsed":[
		"KHR_materials_emissive_strength",
		"KHR_materials_specular",
		"KHR_materials_ior"
	],
	"scene":0,
	"scenes":[
		{
			"name":"Scene",
			"nodes":[
				0,
				1,
				2
			]
		}
	],
	"nodes":[
		{
			"mesh":0,
			"name":"Nucleo",
			"rotation":[
				0,
				0,
				-0.7071066498756409,
				0.70710688829422
			],
			"translation":[
				0,
				3,
				0
			]
		},
		{
			"mesh":1,
			"name":"WIreCenter"
		},
		{
			"mesh":2,
			"name":"WireSide",
			"translation":[
				0.7000000476837158,
				2.200000047683716,
				-1.7999999523162842
			]
		}
	],
	"materials":[
		{
			"doubleSided":true,
			"name":"Material.001",
			"pbrMetallicRoughness":{
				"baseColorFactor":[
					0.017387233674526215,
					0.017387233674526215,
					0.017387233674526215,
					1
				],
				"metallicFactor":0,
				"roughnessFactor":0.1727272868156433
			}
		},
		{
			"doubleSided":true,
			"emissiveFactor":[
				0.002952778246253729,
				0.0715765431523323,
				1
			],
			"extensions":{
				"KHR_materials_emissive_strength":{
					"emissiveStrength":26.39999771118164
				}
			},
			"name":"Material.003",
			"pbrMetallicRoughness":{
				"baseColorFactor":[
					0,
					0,
					0,
					1
				]
			}
		},
		{
			"doubleSided":true,
			"name":"Material.005",
			"pbrMetallicRoughness":{
				"baseColorFactor":[
					0.20189987123012543,
					0.20189987123012543,
					0.20189987123012543,
					1
				],
				"metallicFactor":0,
				"roughnessFactor":0.7727272510528564
			}
		},
		{
			"doubleSided":true,
			"emissiveFactor":[
				1,
				0.618973970413208,
				0
			],
			"extensions":{
				"KHR_materials_emissive_strength":{
					"emissiveStrength":1.100000023841858
				}
			},
			"name":"Material.007",
			"pbrMetallicRoughness":{
				"baseColorFactor":[
					0,
					0,
					0,
					1
				]
			}
		},
		{
			"doubleSided":true,
			"name":"Material.006",
			"pbrMetallicRoughness":{
				"metallicFactor":0
			}
		},
		{
			"doubleSided":true,
			"extensions":{
				"KHR_materials_specular":{
					"specularColorFactor":[
						1.013216458390331,
						1.013216458390331,
						1.013216458390331
					]
				},
				"KHR_materials_ior":{
					"ior":1.4500000476837158
				}
			},
			"name":"Material.004",
			"pbrMetallicRoughness":{
				"baseColorFactor":[
					0.447977751493454,
					0.447977751493454,
					0.447977751493454,
					1
				],
				"metallicFactor":0,
				"roughnessFactor":0.22727271914482117
			}
		},
		{
			"doubleSided":true,
			"name":"Material.002",
			"pbrMetallicRoughness":{}
		}
	],
	"meshes":[
		{
			"name":"Cylinder.003",
			"primitives":[
				{
					"attributes":{
						"POSITION":0,
						"NORMAL":1,
						"TEXCOORD_0":2
					},
					"indices":3,
					"material":0
				},
				{
					"attributes":{
						"POSITION":4,
						"NORMAL":5,
						"TEXCOORD_0":6
					},
					"indices":7,
					"material":1
				},
				{
					"attributes":{
						"POSITION":8,
						"NORMAL":9,
						"TEXCOORD_0":10
					},
					"indices":11,
					"material":2
				},
				{
					"attributes":{
						"POSITION":12,
						"NORMAL":13,
						"TEXCOORD_0":14
					},
					"indices":15,
					"material":3
				},
				{
					"attributes":{
						"POSITION":16,
						"NORMAL":17,
						"TEXCOORD_0":18
					},
					"indices":19,
					"material":4
				},
				{
					"attributes":{
						"POSITION":20,
						"NORMAL":21,
						"TEXCOORD_0":22
					},
					"indices":23,
					"material":5
				}
			]
		},
		{
			"name":"BezierCurve",
			"primitives":[
				{
					"attributes":{
						"POSITION":24,
						"NORMAL":25,
						"TEXCOORD_0":26
					},
					"indices":27,
					"material":6
				}
			]
		},
		{
			"name":"BezierCurve.001",
			"primitives":[
				{
					"attributes":{
						"POSITION":28,
						"NORMAL":29,
						"TEXCOORD_0":30
					},
					"indices":31,
					"material":6
				}
			]
		}
	],
	"accessors":[
		{
			"bufferView":0,
			"componentType":5126,
			"count":7770,
			"max":[
				3.000000238418579,
				1.3982431888580322,
				2.0182719230651855
			],
			"min":[
				-2.999999761581421,
				-1.2595865726470947,
				-2.0182719230651855
			],
			"type":"VEC3"
		},
		{
			"bufferView":1,
			"componentType":5126,
			"count":7770,
			"type":"VEC3"
		},
		{
			"bufferView":2,
			"componentType":5126,
			"count":7770,
			"type":"VEC2"
		},
		{
			"bufferView":3,
			"componentType":5123,
			"count":29724,
			"type":"SCALAR"
		},
		{
			"bufferView":4,
			"componentType":5126,
			"count":2848,
			"max":[
				0.7126860618591309,
				0.18138530850410461,
				2.0209107398986816
			],
			"min":[
				-0.7892763018608093,
				-1.2164291143417358,
				-2.0209107398986816
			],
			"type":"VEC3"
		},
		{
			"bufferView":5,
			"componentType":5126,
			"count":2848,
			"type":"VEC3"
		},
		{
			"bufferView":6,
			"componentType":5126,
			"count":2848,
			"type":"VEC2"
		},
		{
			"bufferView":7,
			"componentType":5123,
			"count":4650,
			"type":"SCALAR"
		},
		{
			"bufferView":8,
			"componentType":5126,
			"count":5517,
			"max":[
				3.000000238418579,
				1.4764784574508667,
				2.1764779090881348
			],
			"min":[
				-4.041085243225098,
				-1.0000004768371582,
				-2.1764779090881348
			],
			"type":"VEC3"
		},
		{
			"bufferView":9,
			"componentType":5126,
			"count":5517,
			"type":"VEC3"
		},
		{
			"bufferView":10,
			"componentType":5126,
			"count":5517,
			"type":"VEC2"
		},
		{
			"bufferView":11,
			"componentType":5123,
			"count":21840,
			"type":"SCALAR"
		},
		{
			"bufferView":12,
			"componentType":5126,
			"count":132,
			"max":[
				-3.822439193725586,
				0.45534130930900574,
				1.4553403854370117
			],
			"min":[
				-3.8783493041992188,
				-0.45533958077430725,
				-1.4553403854370117
			],
			"type":"VEC3"
		},
		{
			"bufferView":13,
			"componentType":5126,
			"count":132,
			"type":"VEC3"
		},
		{
			"bufferView":14,
			"componentType":5126,
			"count":132,
			"type":"VEC2"
		},
		{
			"bufferView":15,
			"componentType":5123,
			"count":384,
			"type":"SCALAR"
		},
		{
			"bufferView":16,
			"componentType":5126,
			"count":1831,
			"max":[
				2.8000004291534424,
				1.4400007724761963,
				1.4000003337860107
			],
			"min":[
				-2.799999952316284,
				0.6563061475753784,
				-1.4000002145767212
			],
			"type":"VEC3"
		},
		{
			"bufferView":17,
			"componentType":5126,
			"count":1831,
			"type":"VEC3"
		},
		{
			"bufferView":18,
			"componentType":5126,
			"count":1831,
			"type":"VEC2"
		},
		{
			"bufferView":19,
			"componentType":5123,
			"count":6420,
			"type":"SCALAR"
		},
		{
			"bufferView":20,
			"componentType":5126,
			"count":78390,
			"max":[
				2.9779539108276367,
				1.0665700435638428,
				2.086127281188965
			],
			"min":[
				-2.22109055519104,
				-1.0861270427703857,
				-2.086127519607544
			],
			"type":"VEC3"
		},
		{
			"bufferView":21,
			"componentType":5126,
			"count":78390,
			"type":"VEC3"
		},
		{
			"bufferView":22,
			"componentType":5126,
			"count":78390,
			"type":"VEC2"
		},
		{
			"bufferView":23,
			"componentType":5125,
			"count":459552,
			"type":"SCALAR"
		},
		{
			"bufferView":24,
			"componentType":5126,
			"count":1285,
			"max":[
				0.04986510053277016,
				5.977645397186279,
				-4.184246063232422e-05
			],
			"min":[
				-1.1081397533416748,
				0.4480007290840149,
				-1.1726858615875244
			],
			"type":"VEC3"
		},
		{
			"bufferView":25,
			"componentType":5126,
			"count":1285,
			"type":"VEC3"
		},
		{
			"bufferView":26,
			"componentType":5126,
			"count":1285,
			"type":"VEC2"
		},
		{
			"bufferView":27,
			"componentType":5123,
			"count":6972,
			"type":"SCALAR"
		},
		{
			"bufferView":28,
			"componentType":5126,
			"count":505,
			"max":[
				0.44692718982696533,
				1.8051855564117432,
				0.058180127292871475
			],
			"min":[
				-0.42783409357070923,
				-1.0687263011932373,
				-0.25697004795074463
			],
			"type":"VEC3"
		},
		{
			"bufferView":29,
			"componentType":5126,
			"count":505,
			"type":"VEC3"
		},
		{
			"bufferView":30,
			"componentType":5126,
			"count":505,
			"type":"VEC2"
		},
		{
			"bufferView":31,
			"componentType":5123,
			"count":2652,
			"type":"SCALAR"
		}
	],
	"bufferViews":[
		{
			"buffer":0,
			"byteLength":93240,
			"byteOffset":0,
			"target":34962
		},
		{
			"buffer":0,
			"byteLength":93240,
			"byteOffset":93240,
			"target":34962
		},
		{
			"buffer":0,
			"byteLength":62160,
			"byteOffset":186480,
			"target":34962
		},
		{
			"buffer":0,
			"byteLength":59448,
			"byteOffset":248640,
			"target":34963
		},
		{
			"buffer":0,
			"byteLength":34176,
			"byteOffset":308088,
			"target":34962
		},
		{
			"buffer":0,
			"byteLength":34176,
			"byteOffset":342264,
			"target":34962
		},
		{
			"buffer":0,
			"byteLength":22784,
			"byteOffset":376440,
			"target":34962
		},
		{
			"buffer":0,
			"byteLength":9300,
			"byteOffset":399224,
			"target":34963
		},
		{
			"buffer":0,
			"byteLength":66204,
			"byteOffset":408524,
			"target":34962
		},
		{
			"buffer":0,
			"byteLength":66204,
			"byteOffset":474728,
			"target":34962
		},
		{
			"buffer":0,
			"byteLength":44136,
			"byteOffset":540932,
			"target":34962
		},
		{
			"buffer":0,
			"byteLength":43680,
			"byteOffset":585068,
			"target":34963
		},
		{
			"buffer":0,
			"byteLength":1584,
			"byteOffset":628748,
			"target":34962
		},
		{
			"buffer":0,
			"byteLength":1584,
			"byteOffset":630332,
			"target":34962
		},
		{
			"buffer":0,
			"byteLength":1056,
			"byteOffset":631916,
			"target":34962
		},
		{
			"buffer":0,
			"byteLength":768,
			"byteOffset":632972,
			"target":34963
		},
		{
			"buffer":0,
			"byteLength":21972,
			"byteOffset":633740,
			"target":34962
		},
		{
			"buffer":0,
			"byteLength":21972,
			"byteOffset":655712,
			"target":34962
		},
		{
			"buffer":0,
			"byteLength":14648,
			"byteOffset":677684,
			"target":34962
		},
		{
			"buffer":0,
			"byteLength":12840,
			"byteOffset":692332,
			"target":34963
		},
		{
			"buffer":0,
			"byteLength":940680,
			"byteOffset":705172,
			"target":34962
		},
		{
			"buffer":0,
			"byteLength":940680,
			"byteOffset":1645852,
			"target":34962
		},
		{
			"buffer":0,
			"byteLength":627120,
			"byteOffset":2586532,
			"target":34962
		},
		{
			"buffer":0,
			"byteLength":1838208,
			"byteOffset":3213652,
			"target":34963
		},
		{
			"buffer":0,
			"byteLength":15420,
			"byteOffset":5051860,
			"target":34962
		},
		{
			"buffer":0,
			"byteLength":15420,
			"byteOffset":5067280,
			"target":34962
		},
		{
			"buffer":0,
			"byteLength":10280,
			"byteOffset":5082700,
			"target":34962
		},
		{
			"buffer":0,
			"byteLength":13944,
			"byteOffset":5092980,
			"target":34963
		},
		{
			"buffer":0,
			"byteLength":6060,
			"byteOffset":5106924,
			"target":34962
		},
		{
			"buffer":0,
			"byteLength":6060,
			"byteOffset":5112984,
			"target":34962
		},
		{
			"buffer":0,
			"byteLength":4040,
			"byteOffset":5119044,
			"target":34962
		},
		{
			"buffer":0,
			"byteLength":5304,
			"byteOffset":5123084,
			"target":34963
		}
	],
	"buffers":[
		{
			"byteLength":5128388,
			"uri":"JetpackModel.bin"
		}
	]
}
